<svg width="31" height="34" viewBox="0 0 31 34" fill="none" xmlns="http://www.w3.org/2000/svg">
<path fill-rule="evenodd" clip-rule="evenodd" d="M15.5 0C6.94511 0 0 7.59298 0 16.9459C0 26.2989 6.94511 33.8918 15.5 33.8918C24.0549 33.8918 31 26.2989 31 16.9459C31 7.59298 24.0549 0 15.5 0ZM8.05004 12.5218L8.21611 12.8353L15.1136 25.8982L16.0724 26.5034L15.1191 25.9067L15.2852 26.2214C15.8111 27.2188 16.8109 27.899 18.114 28.0165C19.2134 28.1157 20.4578 27.7937 21.5671 27.0929C22.8082 26.3098 23.9121 25.6126 23.9121 25.6126C24.4413 25.2785 24.6229 24.5389 24.3173 23.9591L22.0177 19.6052C21.7122 19.0266 21.0346 18.8281 20.5054 19.1622L19.5466 19.7674L15.2885 11.7036L16.2473 11.0984C16.7765 10.7643 16.9581 10.0235 16.6525 9.44493L14.353 5.09104C14.0474 4.51125 13.3699 4.31395 12.8406 4.64803C12.8406 4.64803 11.7368 5.34402 10.4957 6.12837C9.38636 6.828 8.50839 7.84596 8.03786 8.93534C7.47875 10.2281 7.51861 11.5148 8.0445 12.5121L8.05004 12.5218ZM17.0367 24.6963L9.96207 11.3017C9.76611 10.9301 9.83143 10.452 10.0396 9.97026C10.3352 9.28516 10.9054 8.66421 11.6029 8.22483L12.989 7.34969L14.1814 9.60713L13.2226 10.2123C12.6934 10.5464 12.5118 11.2872 12.8174 11.8658L18.1826 22.0261C18.4882 22.6047 19.1657 22.8032 19.695 22.4691L20.6537 21.8639L21.8461 24.1213L20.46 24.9964C19.7625 25.437 18.9864 25.6658 18.2955 25.6041C17.8195 25.5617 17.4165 25.391 17.215 25.0352L17.0367 24.6963Z" fill="#332E2E"/>
</svg>
