<svg width="17" height="15" viewBox="0 0 17 15" fill="none" xmlns="http://www.w3.org/2000/svg">
<path fill-rule="evenodd" clip-rule="evenodd" d="M15.024 2.06413C15.024 2.11556 15.0034 2.16484 14.9668 2.20093L8.69782 8.37626C8.50308 8.56809 8.19039 8.56798 7.9958 8.37601L1.72456 2.18962C1.68923 2.15477 1.66934 2.10721 1.66934 2.05758C1.66934 1.95515 1.75237 1.87211 1.85481 1.87211H14.832C14.9381 1.87211 15.024 1.95808 15.024 2.06413ZM2.16934 12.1687C1.89319 12.1687 1.66934 11.9449 1.66934 11.6687V5.82413C1.66934 5.38035 2.20445 5.15652 2.52042 5.46813L7.9958 10.8679C8.1904 11.0598 8.50305 11.0599 8.69777 10.8681L14.1731 5.47446C14.4892 5.16313 15.024 5.38702 15.024 5.83066V11.6687C15.024 11.9449 14.8002 12.1687 14.524 12.1687H2.16934ZM0 13.5408C0 13.817 0.223858 14.0408 0.5 14.0408H16.1934C16.4695 14.0408 16.6934 13.817 16.6934 13.5408V0.5C16.6934 0.223857 16.4695 0 16.1934 0H0.500001C0.223858 0 0 0.223858 0 0.5V13.5408Z" fill="#332E2E"/>
</svg>
