<svg width="25" height="25" viewBox="0 0 25 25" fill="none" xmlns="http://www.w3.org/2000/svg">
<circle cx="14" cy="11" r="10" fill="#D9D9D9"/>
<path fill-rule="evenodd" clip-rule="evenodd" d="M12.5 0C5.60089 0 0 5.60089 0 12.5C0 19.3991 5.60089 25 12.5 25C19.3991 25 25 19.3991 25 12.5C25 5.60089 19.3991 0 12.5 0ZM6.49196 9.23661L6.62589 9.46786L12.1884 19.1036L12.9616 19.55L12.1929 19.1098L12.3268 19.342C12.7509 20.0777 13.5571 20.5795 14.608 20.6661C15.4946 20.7393 16.4982 20.5018 17.3929 19.9848C18.3937 19.4071 19.2839 18.8929 19.2839 18.8929C19.7107 18.6464 19.8571 18.1009 19.6107 17.6732L17.7562 14.4616C17.5098 14.0348 16.9634 13.8884 16.5366 14.1348L15.7634 14.5812L12.3295 8.63304L13.1027 8.18661C13.5295 7.94018 13.6759 7.39375 13.4295 6.96696L11.575 3.75536C11.3286 3.32768 10.7821 3.18214 10.3554 3.42857C10.3554 3.42857 9.46518 3.94196 8.46429 4.52054C7.56964 5.03661 6.86161 5.7875 6.48214 6.59107C6.03125 7.54464 6.06339 8.49375 6.4875 9.22946L6.49196 9.23661ZM13.7393 18.217L8.03393 8.33661C7.87589 8.0625 7.92857 7.70982 8.09643 7.35446C8.33482 6.84911 8.79464 6.39107 9.35714 6.06696L10.475 5.42143L11.4366 7.08661L10.6634 7.53304C10.2366 7.77946 10.0902 8.32589 10.3366 8.75268L14.6634 16.2473C14.9098 16.6741 15.4562 16.8205 15.883 16.5741L16.6563 16.1277L17.6179 17.7929L16.5 18.4384C15.9375 18.7634 15.3116 18.9321 14.7545 18.8866C14.3705 18.8554 14.0455 18.7295 13.883 18.467L13.7393 18.217Z" fill="#C42021"/>
</svg>
