<svg width="30" height="30" viewBox="0 0 30 30" fill="none" xmlns="http://www.w3.org/2000/svg">
<path d="M30 13.3208C30 15.0434 29.7247 16.6235 29.1803 18.0536C28.6292 19.4901 27.8481 20.6031 26.8491 21.3932C25.8495 22.1826 24.6966 22.5747 23.3964 22.5747C22.3207 22.5747 21.4177 22.2576 20.6746 21.6294C19.9382 20.9952 19.5024 20.1864 19.3618 19.2041H19.2145C18.7147 20.2614 17.9976 21.0884 17.062 21.6856C16.1336 22.2758 15.026 22.5747 13.7511 22.5747C11.8744 22.5747 10.4076 21.9523 9.3507 20.7092C8.29437 19.4649 7.76861 17.774 7.76861 15.6342C7.76861 13.1591 8.50563 11.1441 9.97847 9.59559C11.4579 8.04712 13.3986 7.27582 15.8004 7.27582C16.6461 7.27582 17.6131 7.35084 18.6893 7.50615C19.765 7.65561 20.7326 7.86719 21.597 8.13445L21.1292 16.6915V17.0894C21.1292 19.2533 21.9622 20.3358 23.6209 20.3358C24.7612 20.3358 25.6895 19.6829 26.4006 18.3765C27.1117 17.0707 27.4702 15.3733 27.4702 13.2839C27.4702 11.0819 27.0091 9.16071 26.0801 7.50615C25.1577 5.85219 23.8388 4.58328 22.1282 3.68773C20.4247 2.79862 18.4648 2.35084 16.2489 2.35084C13.4565 2.35084 11.0288 2.91056 8.9668 4.03587C6.90423 5.16176 5.32877 6.7665 4.23984 8.84949C3.15091 10.9325 2.60704 13.3396 2.60704 16.0755C2.60704 19.7826 3.61207 22.6304 5.62998 24.6267C7.64125 26.617 10.5423 27.6117 14.3336 27.6117C16.96 27.6117 19.6883 27.0894 22.5127 26.0444V28.4697C20.1109 29.4901 17.3885 30 14.3336 30C9.79255 30 6.27042 28.7868 3.75936 26.3615C1.24889 23.9427 0 20.5533 0 16.2003C0 13.0413 0.666398 10.2303 2.00463 7.76111C3.34346 5.29891 5.25211 3.3894 7.73058 2.03376C10.203 0.678115 13.0467 0 16.2489 0C18.9386 0 21.3278 0.547415 23.429 1.64811C25.5229 2.7488 27.1431 4.30958 28.2833 6.33103C29.4302 8.35189 30 10.684 30 13.3208ZM10.5996 15.7092C10.5996 18.7932 11.8171 20.3358 14.2569 20.3358C16.8507 20.3358 18.2535 18.4328 18.4781 14.6331L18.7467 9.88161C17.8437 9.63896 16.864 9.51471 15.8004 9.51471C14.1736 9.51471 12.8994 10.0621 11.9771 11.157C11.0608 12.2448 10.5996 13.7686 10.5996 15.7092Z" fill="#EDEDF4"/>
</svg>
