<svg width="30" height="30" viewBox="0 0 30 30" fill="none" xmlns="http://www.w3.org/2000/svg">
<path fill-rule="evenodd" clip-rule="evenodd" d="M8.65852 0H21.342C26.1051 0 30 3.88019 30 8.62041V21.3796C30 26.1209 26.1051 30 21.342 30H8.65852C3.8955 30 0 26.1209 0 21.3796V8.62041C0 3.88019 3.89545 0 8.65852 0ZM14.9192 6.90036C19.5477 6.90036 23.3036 10.689 23.3036 15.3577C23.3036 20.027 19.5477 23.815 14.9192 23.815C10.2896 23.815 6.53419 20.027 6.53419 15.3577C6.53419 10.689 10.2896 6.90036 14.9192 6.90036ZM14.9192 9.75689C17.9842 9.75689 20.4717 12.2655 20.4717 15.3577C20.4717 18.4499 17.9842 20.9591 14.9192 20.9591C11.8531 20.9591 9.36609 18.4499 9.36609 15.3577C9.36609 12.2655 11.8531 9.75689 14.9192 9.75689ZM23.0307 5.72818C23.7825 5.72818 24.3921 6.34304 24.3921 7.10089C24.3921 7.8593 23.7825 8.47416 23.0307 8.47416C22.2794 8.47416 21.6698 7.8593 21.6698 7.10089C21.6698 6.34304 22.2794 5.72818 23.0307 5.72818ZM9.69492 2.45056H20.3067C24.2913 2.45056 27.5501 5.72147 27.5501 9.71845V20.4761C27.5501 24.473 24.2914 27.7433 20.3067 27.7433H9.69492C5.71031 27.7433 2.451 24.473 2.451 20.476V9.71835C2.451 5.72147 5.71031 2.45056 9.69492 2.45056Z" fill="#EDEDF4"/>
</svg>
