<svg width="218" height="132" viewBox="0 0 218 132" fill="none" xmlns="http://www.w3.org/2000/svg">
<path d="M33.3905 42.534C32.8358 40.917 33.1458 39.1287 34.2123 37.7926L131.427 -83.9954C133.179 -86.191 136.396 -86.5122 138.548 -84.7064L192.077 -39.7909C194.192 -38.0159 194.468 -34.8621 192.693 -32.7467L66.9722 117.081C64.4714 120.062 59.6746 119.17 58.4124 115.489L33.3905 42.534Z" fill="#C42021"/>
<path d="M55.3905 50.534C54.8358 48.917 55.1458 47.1287 56.2123 45.7926L153.427 -75.9954C155.179 -78.191 158.396 -78.5122 160.548 -76.7064L214.077 -31.7909C216.192 -30.0159 216.468 -26.8621 214.693 -24.7467L88.9722 125.081C86.4714 128.062 81.6746 127.17 80.4124 123.489L55.3905 50.534Z" fill="#EDEDF4" fill-opacity="0.929412"/>
</svg>
