<svg width="30" height="31" viewBox="0 0 30 31" fill="none" xmlns="http://www.w3.org/2000/svg">
<path fill-rule="evenodd" clip-rule="evenodd" d="M25.6267 5.23632C22.8059 2.42344 19.0538 0.876465 15.0576 0.876465C6.82539 0.876418 0.12511 7.54415 0.12511 15.7417C0.12511 18.3603 0.814408 20.9215 2.12044 23.1719L0 30.8765L7.91997 28.8083C10.1041 29.9922 12.5612 30.6197 15.0554 30.6197H15.0615C23.2942 30.6197 30 23.952 30 15.7549C30 11.7818 28.4453 8.05042 25.6245 5.23856L25.6267 5.23637L25.6267 5.23632ZM15.062 28.1114C12.8308 28.1114 10.6455 27.5131 8.73878 26.3876L8.28423 26.1177L3.5843 27.3424L4.83943 22.7841L4.54543 22.3158C3.29583 20.3523 2.64371 18.0798 2.64371 15.7423C2.64371 8.92853 8.21397 3.38364 15.0687 3.38364C18.3834 3.38364 21.506 4.67334 23.8485 7.0042C26.1921 9.3423 27.481 12.4423 27.481 15.7461C27.4754 22.5648 21.9052 28.1097 15.061 28.1097L15.0621 28.1114L15.062 28.1114ZM21.8691 18.8543C21.4982 18.6665 19.6606 17.7707 19.3196 17.6467C18.9785 17.5228 18.7299 17.4589 18.4769 17.8346C18.2299 18.2037 17.5119 19.0422 17.2932 19.2929C17.0745 19.5392 16.858 19.5744 16.4871 19.3866C16.1161 19.1987 14.9086 18.807 13.4841 17.541C12.3762 16.557 11.6249 15.3384 11.4062 14.9693C11.1875 14.6002 11.3818 14.3952 11.5718 14.214C11.7434 14.0487 11.9433 13.781 12.1315 13.5633C12.3203 13.3458 12.379 13.1937 12.503 12.9425C12.6276 12.6962 12.5667 12.4786 12.4731 12.2918C12.379 12.1046 11.6305 10.2761 11.3254 9.53125C11.0259 8.80347 10.7131 8.90483 10.4833 8.89219C10.2646 8.88114 10.0171 8.88114 9.77078 8.88114C9.52436 8.88114 9.11687 8.97424 8.77586 9.34445C8.43479 9.71358 7.46814 10.6159 7.46814 12.4439C7.46814 14.2724 8.80464 16.0359 8.99233 16.2877C9.18109 16.5333 11.6249 20.2889 15.3687 21.896C16.2584 22.2766 16.9532 22.5053 17.4947 22.6821C18.3899 22.9631 19.2021 22.9223 19.8444 22.8281C20.5625 22.7229 22.0529 21.9312 22.3657 21.0635C22.678 20.1953 22.678 19.4526 22.5844 19.299C22.4958 19.1336 22.2489 19.0422 21.8719 18.8521L21.8691 18.8543Z" fill="#EDEDF4"/>
</svg>
